M48
; DRILL file {KiCad 9.0.9-9.0.9~ubuntu24.04.1} date 2026-07-09T16:44:09+0530
; FORMAT={-:-/ absolute / metric / decimal}
; #@! TF.CreationDate,2026-07-09T16:44:09+05:30
; #@! TF.GenerationSoftware,Kicad,Pcbnew,9.0.9-9.0.9~ubuntu24.04.1
; #@! TF.FileFunction,MixedPlating,1,2
FMAT,2
METRIC
; #@! TA.AperFunction,Plated,PTH,ViaDrill
T1C0.300
; #@! TA.AperFunction,Plated,PTH,ComponentDrill
T2C0.600
; #@! TA.AperFunction,Plated,PTH,ComponentDrill
T3C0.800
; #@! TA.AperFunction,Plated,PTH,ComponentDrill
T4C1.000
; #@! TA.AperFunction,Plated,PTH,ComponentDrill
T5C1.100
; #@! TA.AperFunction,Plated,PTH,ComponentDrill
T6C1.200
; #@! TA.AperFunction,Plated,PTH,ComponentDrill
T7C1.300
; #@! TA.AperFunction,Plated,PTH,ComponentDrill
T8C1.500
; #@! TA.AperFunction,Plated,PTH,ComponentDrill
T9C1.600
; #@! TA.AperFunction,NonPlated,NPTH,ComponentDrill
T10C3.500
%
G90
G05
T1
X135.325Y-51.275
X135.35Y-52.0
X135.425Y-52.75
X135.475Y-53.525
X135.5Y-54.25
X135.575Y-55.0
X135.625Y-118.925
X135.625Y-120.525
X135.625Y-121.3
X135.625Y-122.9
X135.65Y-116.575
X135.65Y-118.175
X135.65Y-119.725
X135.65Y-122.1
X135.675Y-115.775
X135.675Y-117.375
X135.925Y-65.9
X135.95Y-66.625
X136.025Y-67.375
X136.025Y-77.675
X136.05Y-78.4
X136.075Y-68.15
X136.1Y-68.875
X136.125Y-79.15
X136.175Y-69.625
X136.175Y-79.925
X136.2Y-51.3
X136.2Y-80.65
X136.225Y-52.025
X136.275Y-81.4
X136.3Y-52.775
X136.35Y-53.55
X136.375Y-54.275
X136.45Y-55.025
X136.525Y-118.95
X136.525Y-120.55
X136.525Y-121.325
X136.525Y-122.925
X136.55Y-116.6
X136.55Y-118.2
X136.55Y-119.725
X136.55Y-122.1
X136.575Y-115.775
X136.575Y-117.375
X136.8Y-65.925
X136.825Y-66.65
X136.9Y-67.4
X136.9Y-77.7
X136.925Y-78.425
X136.95Y-68.175
X136.975Y-68.9
X137.0Y-79.175
X137.05Y-69.65
X137.05Y-79.95
X137.075Y-80.675
X137.106Y-51.291
X137.131Y-52.016
X137.15Y-81.425
X137.206Y-52.766
X137.256Y-53.541
X137.281Y-54.266
X137.356Y-55.016
X137.375Y-118.925
X137.375Y-120.525
X137.375Y-121.3
X137.375Y-122.9
X137.4Y-116.575
X137.4Y-118.175
X137.4Y-119.725
X137.4Y-122.1
X137.425Y-115.775
X137.425Y-117.375
X137.706Y-65.916
X137.731Y-66.641
X137.806Y-67.391
X137.806Y-77.691
X137.831Y-78.416
X137.856Y-68.166
X137.881Y-68.891
X137.906Y-79.166
X137.956Y-69.641
X137.956Y-79.941
X137.981Y-80.666
X138.025Y-51.275
X138.05Y-52.0
X138.056Y-81.416
X138.125Y-52.75
X138.175Y-53.525
X138.2Y-54.25
X138.275Y-55.0
X138.3Y-119.725
X138.3Y-122.1
X138.325Y-115.775
X138.325Y-117.375
X138.325Y-118.95
X138.325Y-120.55
X138.325Y-121.325
X138.325Y-122.925
X138.35Y-116.6
X138.35Y-118.2
X138.625Y-65.9
X138.65Y-66.625
X138.725Y-67.375
X138.725Y-77.675
X138.75Y-78.4
X138.775Y-68.15
X138.8Y-68.875
X138.825Y-79.15
X138.875Y-69.625
X138.875Y-79.925
X138.9Y-80.65
X138.925Y-51.3
X138.95Y-52.025
X138.975Y-81.4
X139.025Y-52.775
X139.075Y-53.55
X139.1Y-54.275
X139.15Y-118.925
X139.15Y-120.525
X139.15Y-121.3
X139.15Y-122.9
X139.175Y-55.025
X139.175Y-116.575
X139.175Y-118.175
X139.175Y-119.725
X139.175Y-122.1
X139.2Y-115.775
X139.2Y-117.375
X139.525Y-65.925
X139.55Y-66.65
X139.625Y-67.4
X139.625Y-77.7
X139.65Y-78.425
X139.675Y-68.175
X139.7Y-68.9
X139.725Y-79.175
X139.775Y-69.65
X139.775Y-79.95
X139.8Y-80.675
X139.875Y-81.425
X140.05Y-118.95
X140.05Y-120.55
X140.05Y-121.325
X140.05Y-122.925
X140.075Y-116.6
X140.075Y-118.2
X140.075Y-119.725
X140.075Y-122.1
X140.1Y-115.775
X140.1Y-117.375
X140.9Y-118.925
X140.9Y-120.525
X140.9Y-121.3
X140.9Y-122.9
X140.925Y-116.575
X140.925Y-118.175
X140.925Y-119.725
X140.925Y-122.1
X140.95Y-115.775
X140.95Y-117.375
X141.825Y-119.725
X141.825Y-122.1
X141.85Y-115.775
X141.85Y-117.375
X141.85Y-118.95
X141.85Y-120.55
X141.85Y-121.325
X141.85Y-122.925
X141.85Y-137.15
X141.85Y-138.75
X141.85Y-139.525
X141.85Y-141.125
X141.875Y-116.6
X141.875Y-118.2
X141.875Y-134.8
X141.875Y-136.4
X141.875Y-137.95
X141.875Y-140.325
X141.9Y-134.0
X141.9Y-135.6
X142.75Y-137.175
X142.75Y-138.775
X142.75Y-139.55
X142.75Y-141.15
X142.775Y-134.825
X142.775Y-136.425
X142.775Y-137.95
X142.775Y-140.325
X142.8Y-134.0
X142.8Y-135.6
X143.6Y-137.15
X143.6Y-138.75
X143.6Y-139.525
X143.6Y-141.125
X143.625Y-134.8
X143.625Y-136.4
X143.625Y-137.95
X143.625Y-140.325
X143.65Y-134.0
X143.65Y-135.6
X144.525Y-137.95
X144.525Y-140.325
X144.55Y-134.0
X144.55Y-135.6
X144.55Y-137.175
X144.55Y-138.775
X144.55Y-139.55
X144.55Y-141.15
X144.575Y-134.825
X144.575Y-136.425
X145.375Y-137.15
X145.375Y-138.75
X145.375Y-139.525
X145.375Y-141.125
X145.4Y-134.8
X145.4Y-136.4
X145.4Y-137.95
X145.4Y-140.325
X145.425Y-134.0
X145.425Y-135.6
X145.725Y-51.05
X145.75Y-51.775
X145.825Y-52.525
X145.875Y-53.3
X145.9Y-54.025
X145.975Y-54.775
X146.275Y-137.175
X146.275Y-138.775
X146.275Y-139.55
X146.275Y-141.15
X146.3Y-134.825
X146.3Y-136.425
X146.3Y-137.95
X146.3Y-140.325
X146.325Y-134.0
X146.325Y-135.6
X146.6Y-51.075
X146.625Y-51.8
X146.7Y-52.55
X146.75Y-53.325
X146.775Y-54.05
X146.85Y-54.8
X147.125Y-137.15
X147.125Y-138.75
X147.125Y-139.525
X147.125Y-141.125
X147.15Y-134.8
X147.15Y-136.4
X147.15Y-137.95
X147.15Y-140.325
X147.175Y-134.0
X147.175Y-135.6
X147.45Y-62.825
X147.475Y-63.55
X147.506Y-51.066
X147.531Y-51.791
X147.55Y-64.3
X147.6Y-65.075
X147.606Y-52.541
X147.625Y-65.8
X147.656Y-53.316
X147.681Y-54.041
X147.7Y-66.55
X147.756Y-54.791
X148.05Y-137.95
X148.05Y-140.325
X148.075Y-134.0
X148.075Y-135.6
X148.075Y-137.175
X148.075Y-138.775
X148.075Y-139.55
X148.075Y-141.15
X148.1Y-134.825
X148.1Y-136.425
X148.325Y-62.85
X148.35Y-63.575
X148.425Y-51.05
X148.425Y-64.325
X148.45Y-51.775
X148.475Y-65.1
X148.5Y-65.825
X148.525Y-52.525
X148.575Y-53.3
X148.575Y-66.575
X148.6Y-54.025
X148.675Y-54.775
X149.231Y-62.841
X149.256Y-63.566
X149.325Y-51.075
X149.331Y-64.316
X149.35Y-51.8
X149.381Y-65.091
X149.406Y-65.816
X149.425Y-52.55
X149.475Y-53.325
X149.481Y-66.566
X149.5Y-54.05
X149.575Y-54.8
X150.15Y-62.825
X150.175Y-63.55
X150.25Y-64.3
X150.3Y-65.075
X150.325Y-65.8
X150.4Y-66.55
X151.05Y-62.85
X151.075Y-63.575
X151.15Y-64.325
X151.2Y-65.1
X151.225Y-65.825
X151.3Y-66.575
X157.55Y-50.775
X157.575Y-51.5
X157.65Y-52.25
X157.7Y-53.025
X157.725Y-53.75
X157.8Y-54.5
X158.425Y-50.8
X158.45Y-51.525
X158.525Y-52.275
X158.575Y-53.05
X158.6Y-53.775
X158.675Y-54.525
X159.331Y-50.791
X159.356Y-51.516
X159.431Y-52.266
X159.481Y-53.041
X159.506Y-53.766
X159.581Y-54.516
X160.25Y-50.775
X160.275Y-51.5
X160.35Y-52.25
X160.4Y-53.025
X160.425Y-53.75
X160.5Y-54.5
X161.15Y-50.8
X161.175Y-51.525
X161.25Y-52.275
X161.3Y-53.05
X161.325Y-53.775
X161.4Y-54.525
X165.9Y-117.95
X166.0Y-130.8
X166.2Y-131.8
X166.4Y-130.4
X166.4Y-131.2
X167.0Y-130.0
X167.0Y-131.0
X167.0Y-131.0
X167.0Y-131.8
X167.6Y-130.4
X167.6Y-131.0
X167.6Y-131.6
X168.2Y-130.8
X168.2Y-131.4
X168.65Y-84.675
X168.675Y-85.4
X168.75Y-86.15
X168.8Y-86.925
X168.8Y-131.0
X168.825Y-87.65
X168.9Y-88.4
X169.525Y-84.7
X169.55Y-85.425
X169.625Y-86.175
X169.675Y-86.95
X169.7Y-87.675
X169.775Y-88.425
X170.431Y-84.691
X170.456Y-85.416
X170.531Y-86.166
X170.581Y-86.941
X170.606Y-87.666
X170.681Y-88.416
X171.35Y-84.675
X171.375Y-85.4
X171.45Y-86.15
X171.5Y-86.925
X171.525Y-87.65
X171.6Y-88.4
X172.25Y-84.7
X172.275Y-85.425
X172.35Y-86.175
X172.4Y-86.95
X172.425Y-87.675
X172.5Y-88.425
X179.2Y-132.0
X179.325Y-51.525
X179.35Y-52.25
X179.4Y-133.0
X179.425Y-53.0
X179.475Y-53.775
X179.5Y-54.5
X179.575Y-55.25
X179.6Y-131.6
X179.6Y-132.4
X180.2Y-51.55
X180.2Y-131.2
X180.2Y-132.2
X180.2Y-133.0
X180.225Y-52.275
X180.3Y-53.025
X180.35Y-53.8
X180.375Y-54.525
X180.45Y-55.275
X180.8Y-131.6
X180.8Y-132.2
X180.8Y-132.8
X181.106Y-51.541
X181.131Y-52.266
X181.206Y-53.016
X181.256Y-53.791
X181.281Y-54.516
X181.356Y-55.266
X181.4Y-132.0
X181.4Y-132.6
X182.025Y-51.525
X182.05Y-52.25
X182.125Y-53.0
X182.175Y-53.775
X182.2Y-54.5
X182.275Y-55.25
X182.925Y-51.55
X182.95Y-52.275
X183.025Y-53.025
X183.075Y-53.8
X183.1Y-54.525
X183.175Y-55.275
X185.755Y-86.905
X186.28Y-86.38
X189.475Y-87.375
X189.7Y-50.4
X189.725Y-51.125
X189.8Y-51.875
X189.85Y-52.65
X189.875Y-53.375
X189.95Y-54.125
X190.575Y-50.425
X190.6Y-51.15
X190.675Y-51.9
X190.725Y-52.675
X190.75Y-53.4
X190.825Y-54.15
X191.481Y-50.416
X191.506Y-51.141
X191.581Y-51.891
X191.631Y-52.666
X191.656Y-53.391
X191.731Y-54.141
X192.4Y-50.4
X192.425Y-51.125
X192.5Y-51.875
X192.55Y-52.65
X192.575Y-53.375
X192.65Y-54.125
X192.75Y-82.8
X193.3Y-50.425
X193.325Y-51.15
X193.4Y-51.9
X193.45Y-52.675
X193.475Y-53.4
X193.55Y-54.15
X193.975Y-58.75
X194.0Y-59.475
X194.075Y-60.225
X194.125Y-61.0
X194.15Y-61.725
X194.225Y-62.475
X194.625Y-82.825
X194.85Y-58.775
X194.875Y-59.5
X194.95Y-60.25
X195.0Y-61.025
X195.025Y-61.75
X195.1Y-62.5
X195.756Y-58.766
X195.781Y-59.491
X195.856Y-60.241
X195.906Y-61.016
X195.931Y-61.741
X196.006Y-62.491
X196.15Y-86.45
X196.175Y-82.825
X196.175Y-87.175
X196.25Y-87.925
X196.3Y-88.7
X196.325Y-89.425
X196.4Y-90.175
X196.675Y-58.75
X196.7Y-59.475
X196.775Y-60.225
X196.825Y-61.0
X196.85Y-61.725
X196.925Y-62.475
X197.025Y-86.475
X197.05Y-87.2
X197.125Y-87.95
X197.175Y-88.725
X197.2Y-89.45
X197.275Y-90.2
X197.475Y-82.825
X197.575Y-58.775
X197.6Y-59.5
X197.675Y-60.25
X197.725Y-61.025
X197.75Y-61.75
X197.825Y-62.5
X197.931Y-86.466
X197.956Y-87.191
X198.031Y-87.941
X198.081Y-88.716
X198.106Y-89.441
X198.181Y-90.191
X198.85Y-86.45
X198.875Y-87.175
X198.95Y-87.925
X199.0Y-88.7
X199.025Y-89.425
X199.1Y-90.175
X199.35Y-82.8
X199.75Y-86.475
X199.775Y-87.2
X199.85Y-87.95
X199.9Y-88.725
X199.925Y-89.45
X200.0Y-90.2
X201.225Y-82.825
X201.25Y-50.525
X201.275Y-51.25
X201.35Y-52.0
X201.4Y-52.775
X201.425Y-53.5
X201.5Y-54.25
X202.125Y-50.55
X202.15Y-51.275
X202.225Y-52.025
X202.275Y-52.8
X202.3Y-53.525
X202.375Y-54.275
X202.775Y-82.825
X203.031Y-50.541
X203.056Y-51.266
X203.131Y-52.016
X203.181Y-52.791
X203.206Y-53.516
X203.281Y-54.266
X203.875Y-82.825
X203.95Y-50.525
X203.975Y-51.25
X204.05Y-52.0
X204.1Y-52.775
X204.125Y-53.5
X204.2Y-54.25
X204.85Y-50.55
X204.875Y-51.275
X204.95Y-52.025
X205.0Y-52.8
X205.025Y-53.525
X205.1Y-54.275
X205.75Y-82.8
X206.025Y-62.375
X206.05Y-63.1
X206.125Y-63.85
X206.175Y-64.625
X206.2Y-65.35
X206.275Y-66.1
X206.9Y-62.4
X206.925Y-63.125
X207.0Y-63.875
X207.05Y-64.65
X207.075Y-65.375
X207.15Y-66.125
X207.625Y-82.825
X207.806Y-62.391
X207.831Y-63.116
X207.85Y-86.75
X207.875Y-87.475
X207.906Y-63.866
X207.95Y-88.225
X207.956Y-64.641
X207.981Y-65.366
X208.0Y-89.0
X208.025Y-89.725
X208.056Y-66.116
X208.1Y-90.475
X208.725Y-62.375
X208.725Y-86.775
X208.75Y-63.1
X208.75Y-87.5
X208.825Y-63.85
X208.825Y-88.25
X208.875Y-64.625
X208.875Y-89.025
X208.9Y-65.35
X208.9Y-89.75
X208.975Y-66.1
X208.975Y-90.5
X209.175Y-82.825
X209.325Y-109.95
X209.325Y-111.55
X209.325Y-112.325
X209.325Y-113.925
X209.35Y-107.6
X209.35Y-109.2
X209.35Y-110.75
X209.35Y-113.125
X209.375Y-106.8
X209.375Y-108.4
X209.625Y-62.4
X209.631Y-86.766
X209.65Y-63.125
X209.656Y-87.491
X209.725Y-63.875
X209.731Y-88.241
X209.775Y-64.65
X209.781Y-89.016
X209.8Y-65.375
X209.806Y-89.741
X209.875Y-66.125
X209.881Y-90.491
X210.15Y-69.275
X210.175Y-70.0
X210.225Y-109.975
X210.225Y-111.575
X210.225Y-112.35
X210.225Y-113.95
X210.25Y-70.75
X210.25Y-107.625
X210.25Y-109.225
X210.25Y-110.75
X210.25Y-113.125
X210.275Y-106.8
X210.275Y-108.4
X210.3Y-71.525
X210.3Y-82.725
X210.325Y-72.25
X210.4Y-73.0
X210.55Y-86.75
X210.575Y-87.475
X210.65Y-88.225
X210.7Y-89.0
X210.725Y-89.725
X210.8Y-90.475
X210.85Y-54.475
X210.875Y-55.2
X210.95Y-55.95
X211.0Y-56.725
X211.025Y-57.45
X211.025Y-69.3
X211.05Y-70.025
X211.075Y-109.95
X211.075Y-111.55
X211.075Y-112.325
X211.075Y-113.925
X211.1Y-58.2
X211.1Y-107.6
X211.1Y-109.2
X211.1Y-110.75
X211.1Y-113.125
X211.125Y-70.775
X211.125Y-106.8
X211.125Y-108.4
X211.175Y-71.55
X211.2Y-72.275
X211.275Y-73.025
X211.45Y-86.775
X211.475Y-87.5
X211.55Y-88.25
X211.6Y-89.025
X211.625Y-89.75
X211.7Y-90.5
X211.725Y-54.5
X211.75Y-55.225
X211.825Y-55.975
X211.875Y-56.75
X211.9Y-57.475
X211.931Y-69.291
X211.956Y-70.016
X211.975Y-58.225
X212.0Y-110.75
X212.0Y-113.125
X212.025Y-106.8
X212.025Y-108.4
X212.025Y-109.975
X212.025Y-111.575
X212.025Y-112.35
X212.025Y-113.95
X212.031Y-70.766
X212.05Y-107.625
X212.05Y-109.225
X212.081Y-71.541
X212.106Y-72.266
X212.175Y-82.7
X212.181Y-73.016
X212.631Y-54.491
X212.656Y-55.216
X212.731Y-55.966
X212.781Y-56.741
X212.806Y-57.466
X212.85Y-69.275
X212.85Y-109.95
X212.85Y-111.55
X212.85Y-112.325
X212.85Y-113.925
X212.875Y-70.0
X212.875Y-107.6
X212.875Y-109.2
X212.875Y-110.75
X212.875Y-113.125
X212.881Y-58.216
X212.9Y-106.8
X212.9Y-108.4
X212.95Y-70.75
X213.0Y-71.525
X213.025Y-72.25
X213.1Y-73.0
X213.55Y-54.475
X213.575Y-55.2
X213.65Y-55.95
X213.7Y-56.725
X213.725Y-57.45
X213.75Y-69.3
X213.75Y-109.975
X213.75Y-111.575
X213.75Y-112.35
X213.75Y-113.95
X213.775Y-70.025
X213.775Y-107.625
X213.775Y-109.225
X213.775Y-110.75
X213.775Y-113.125
X213.8Y-58.2
X213.8Y-106.8
X213.8Y-108.4
X213.85Y-70.775
X213.9Y-71.55
X213.925Y-72.275
X214.0Y-73.025
X214.05Y-82.725
X214.45Y-54.5
X214.475Y-55.225
X214.55Y-55.975
X214.6Y-56.75
X214.6Y-109.95
X214.6Y-111.55
X214.6Y-112.325
X214.6Y-113.925
X214.625Y-57.475
X214.625Y-107.6
X214.625Y-109.2
X214.625Y-110.75
X214.625Y-113.125
X214.65Y-106.8
X214.65Y-108.4
X214.7Y-58.225
X215.525Y-110.75
X215.525Y-113.125
X215.55Y-106.8
X215.55Y-108.4
X215.55Y-109.975
X215.55Y-111.575
X215.55Y-112.35
X215.55Y-113.95
X215.575Y-107.625
X215.575Y-109.225
X215.6Y-82.725
T2
X160.7Y-142.9
X162.5Y-137.9
T3
X140.8Y-128.4
X147.2Y-74.2
X147.64Y-119.4
X148.3Y-129.85
X149.44Y-123.775
X156.88Y-79.0
X156.88Y-89.16
X157.36Y-74.2
X157.8Y-119.4
X159.6Y-123.775
X161.535Y-94.195
X161.535Y-101.815
X164.075Y-94.195
X164.075Y-101.815
X165.6Y-69.2
X165.6Y-79.36
X169.215Y-104.1
X170.55Y-101.075
X172.4Y-69.16
X172.4Y-74.16
X172.95Y-119.925
X175.45Y-119.925
X175.55Y-101.075
X176.835Y-104.1
X181.2Y-66.66
X184.2Y-75.36
X184.2Y-80.36
X186.2Y-66.66
X190.525Y-130.95
X190.525Y-140.95
X190.6Y-75.16
X190.6Y-80.16
X191.12Y-151.4
X201.28Y-151.4
X203.92Y-151.8
X214.08Y-151.8
T4
X142.8Y-93.2
X142.8Y-103.2
T5
X139.415Y-88.125
X149.575Y-88.125
X172.3Y-108.26
X172.3Y-110.8
X172.3Y-113.34
X176.1Y-106.99
X176.1Y-109.53
X176.1Y-112.07
X176.1Y-114.61
X185.8Y-124.6
X195.96Y-124.6
T6
X137.3Y-138.4
X152.3Y-138.4
X198.98Y-124.6
X202.2Y-134.8
X202.2Y-142.3
X214.22Y-124.6
T7
X138.92Y-152.0
X144.0Y-152.0
X149.08Y-152.0
X168.2Y-53.8
X173.28Y-53.8
X206.4Y-74.96
X206.4Y-79.96
T8
X155.9Y-152.0
X178.5Y-152.0
T9
X184.2Y-98.285
X184.2Y-113.525
X185.25Y-136.01
X185.25Y-141.09
X185.25Y-146.17
X185.25Y-151.25
X189.28Y-98.285
X189.28Y-113.525
X194.36Y-98.285
X194.36Y-113.525
X199.44Y-98.285
X199.44Y-113.525
X204.52Y-98.285
X204.52Y-113.525
T10
X157.4Y-110.8
M30
