%TF.GenerationSoftware,KiCad,Pcbnew,9.0.9-9.0.9~ubuntu24.04.1*%
%TF.CreationDate,2026-07-09T16:44:06+05:30*%
%TF.ProjectId,universal_30w_smps,756e6976-6572-4736-916c-5f3330775f73,rev?*%
%TF.SameCoordinates,Original*%
%TF.FileFunction,Soldermask,Bot*%
%TF.FilePolarity,Negative*%
%FSLAX46Y46*%
G04 Gerber Fmt 4.6, Leading zero omitted, Abs format (unit mm)*
G04 Created by KiCad (PCBNEW 9.0.9-9.0.9~ubuntu24.04.1) date 2026-07-09 16:44:06*
%MOMM*%
%LPD*%
G01*
G04 APERTURE LIST*
G04 Aperture macros list*
%AMRoundRect*
0 Rectangle with rounded corners*
0 $1 Rounding radius*
0 $2 $3 $4 $5 $6 $7 $8 $9 X,Y pos of 4 corners*
0 Add a 4 corners polygon primitive as box body*
4,1,4,$2,$3,$4,$5,$6,$7,$8,$9,$2,$3,0*
0 Add four circle primitives for the rounded corners*
1,1,$1+$1,$2,$3*
1,1,$1+$1,$4,$5*
1,1,$1+$1,$6,$7*
1,1,$1+$1,$8,$9*
0 Add four rect primitives between the rounded corners*
20,1,$1+$1,$2,$3,$4,$5,0*
20,1,$1+$1,$4,$5,$6,$7,0*
20,1,$1+$1,$6,$7,$8,$9,0*
20,1,$1+$1,$8,$9,$2,$3,0*%
G04 Aperture macros list end*
%ADD10C,2.400000*%
%ADD11C,1.600000*%
%ADD12RoundRect,0.249999X0.850001X0.850001X-0.850001X0.850001X-0.850001X-0.850001X0.850001X-0.850001X0*%
%ADD13C,2.200000*%
%ADD14RoundRect,0.250000X1.050000X1.050000X-1.050000X1.050000X-1.050000X-1.050000X1.050000X-1.050000X0*%
%ADD15C,2.600000*%
%ADD16C,2.000000*%
%ADD17RoundRect,0.250000X-0.550000X0.550000X-0.550000X-0.550000X0.550000X-0.550000X0.550000X0.550000X0*%
%ADD18O,3.500000X3.500000*%
%ADD19R,1.800000X1.800000*%
%ADD20O,1.800000X1.800000*%
%ADD21C,2.500000*%
%ADD22C,1.800000*%
%ADD23RoundRect,0.250000X-1.050000X-1.050000X1.050000X-1.050000X1.050000X1.050000X-1.050000X1.050000X0*%
%ADD24C,3.000000*%
%ADD25RoundRect,0.250000X-0.550000X-0.550000X0.550000X-0.550000X0.550000X0.550000X-0.550000X0.550000X0*%
%ADD26RoundRect,0.250001X0.949999X-0.949999X0.949999X0.949999X-0.949999X0.949999X-0.949999X-0.949999X0*%
%ADD27R,3.200000X3.200000*%
%ADD28C,3.200000*%
G04 APERTURE END LIST*
D10*
%TO.C,CX1*%
X152300000Y-138400000D03*
X137300000Y-138400000D03*
%TD*%
D11*
%TO.C,C3*%
X190525000Y-130950000D03*
X190525000Y-140950000D03*
%TD*%
%TO.C,C5*%
X172950000Y-119925000D03*
X175450000Y-119925000D03*
%TD*%
%TO.C,C6*%
X170550000Y-101075000D03*
X175550000Y-101075000D03*
%TD*%
D12*
%TO.C,VR2*%
X149575000Y-88125000D03*
D13*
X139415000Y-88125000D03*
%TD*%
D14*
%TO.C,J2*%
X173280000Y-53800000D03*
D15*
X168200000Y-53800000D03*
%TD*%
D16*
%TO.C,CY1*%
X142800000Y-93200000D03*
X142800000Y-103200000D03*
%TD*%
D11*
%TO.C,C10*%
X184200000Y-75360000D03*
X184200000Y-80360000D03*
%TD*%
D17*
%TO.C,U2*%
X164075000Y-94195000D03*
D11*
X161535000Y-94195000D03*
X161535000Y-101815000D03*
X164075000Y-101815000D03*
%TD*%
D18*
%TO.C,U1*%
X157400000Y-110800000D03*
D19*
X176100000Y-114610000D03*
D20*
X172300000Y-113340000D03*
X176100000Y-112070000D03*
X172300000Y-110800000D03*
X176100000Y-109530000D03*
X172300000Y-108260000D03*
X176100000Y-106990000D03*
%TD*%
D21*
%TO.C,TR1*%
X199440000Y-113525000D03*
X184200000Y-113525000D03*
X189280000Y-113525000D03*
X194360000Y-113525000D03*
X204520000Y-113525000D03*
X184200000Y-98285000D03*
X189280000Y-98285000D03*
X194360000Y-98285000D03*
X199440000Y-98285000D03*
X204520000Y-98285000D03*
%TD*%
D22*
%TO.C,RV1*%
X148300000Y-129850000D03*
X140800000Y-128400000D03*
%TD*%
D11*
%TO.C,RT1*%
X160700000Y-142900000D03*
X162500000Y-137900000D03*
%TD*%
%TO.C,R15*%
X165600000Y-69200000D03*
X165600000Y-79360000D03*
%TD*%
%TO.C,R8*%
X147200000Y-74200000D03*
X157360000Y-74200000D03*
%TD*%
%TO.C,R6*%
X156880000Y-89160000D03*
X156880000Y-79000000D03*
%TD*%
%TO.C,R5*%
X147640000Y-119400000D03*
X157800000Y-119400000D03*
%TD*%
%TO.C,R4*%
X159600000Y-123775000D03*
X149440000Y-123775000D03*
%TD*%
D10*
%TO.C,R3*%
X214220000Y-124600000D03*
X198980000Y-124600000D03*
%TD*%
D11*
%TO.C,R2*%
X203920000Y-151800000D03*
X214080000Y-151800000D03*
%TD*%
%TO.C,R1*%
X191120000Y-151400000D03*
X201280000Y-151400000D03*
%TD*%
D15*
%TO.C,L3*%
X206400000Y-79960000D03*
X206400000Y-74960000D03*
%TD*%
D23*
%TO.C,J1*%
X138920000Y-152000000D03*
D15*
X144000000Y-152000000D03*
X149080000Y-152000000D03*
%TD*%
D24*
%TO.C,F1*%
X155900000Y-152000000D03*
X178500000Y-152000000D03*
%TD*%
D25*
%TO.C,D2*%
X169215000Y-104100000D03*
D11*
X176835000Y-104100000D03*
%TD*%
D12*
%TO.C,D1*%
X195960000Y-124600000D03*
D13*
X185800000Y-124600000D03*
%TD*%
D11*
%TO.C,C14*%
X172400000Y-74160000D03*
X172400000Y-69160000D03*
%TD*%
%TO.C,C12*%
X186200000Y-66660000D03*
X181200000Y-66660000D03*
%TD*%
%TO.C,C11*%
X190600000Y-80160000D03*
X190600000Y-75160000D03*
%TD*%
D26*
%TO.C,C1*%
X202200000Y-142300000D03*
D10*
X202200000Y-134800000D03*
%TD*%
D27*
%TO.C,BR1*%
X185250000Y-151250000D03*
D28*
X185250000Y-146170000D03*
X185250000Y-141090000D03*
X185250000Y-136010000D03*
%TD*%
M02*
